<svg xmlns="http://www.w3.org/2000/svg" viewBox="0 0 24 24" fill="#000"><path d="M12 2c3.2 0 5 2.15 5 5.06 0 1.16-.27 2.1-.66 2.91 1.1 1.18 2.46 2 4.29 2.27.25.03.37.33.2.53-.64.75-1.73 1.31-2.93 1.57.14.27.22.57.22.9 0 .74-.32 1.3-.88 1.65-.47.3-1.06.44-1.68.54-.92.16-1.57.46-2.11.83-.67.47-1.35 1.2-2.59 1.2s-1.92-.73-2.59-1.2c-.54-.37-1.19-.67-2.11-.83-.62-.1-1.21-.24-1.68-.54-.56-.35-.88-.91-.88-1.65 0-.33.08-.63.22-.9-1.2-.26-2.29-.82-2.93-1.57a.37.37 0 01.19-.53c1.83-.27 3.2-1.09 4.3-2.27-.39-.81-.66-1.75-.66-2.91C7 4.15 8.8 2 12 2z"/></svg>